<svg xmlns="http://www.w3.org/2000/svg" version="1.1" xmlns:xlink="http://www.w3.org/1999/xlink" xmlns:svgjs="http://svgjs.dev/svgjs" width="1000" height="623" viewBox="0 0 1000 623"><g transform="matrix(1,0,0,1,-0.6060606060606233,0.2522267206477409)"><svg viewBox="0 0 396 247" data-background-color="#ffffff" preserveAspectRatio="xMidYMid meet" height="623" width="1000" xmlns="http://www.w3.org/2000/svg" xmlns:xlink="http://www.w3.org/1999/xlink"><g id="tight-bounds" transform="matrix(1,0,0,1,0.2400000000000091,-0.09999999999999432)"><svg viewBox="0 0 395.52 247.2" height="247.2" width="395.52"><g><svg></svg></g><g><svg viewBox="0 0 395.52 247.2" height="247.2" width="395.52"><g mask="url(#68cb16c0-3d17-4d1a-9df5-006c4169452d)"><g><path xmlns="http://www.w3.org/2000/svg" d="M256.798 229.807c8.521 0 16.271-1.116 23.25-3.347 7.02-2.232 12.964-4.971 17.833-8.217v0c0.406 0.812 0.609 2.13 0.609 3.956v0c0 6.289-4.971 11.503-14.912 15.642-9.941 4.179-20.795 6.269-32.562 6.269v0c-11.158 0-19.416-2.394-24.772-7.182-5.397-4.747-8.095-12.599-8.095-23.554v0c0-13.796 3.55-38.446 10.652-73.949v0c-13.796-0.406-30.939-0.609-51.43-0.609v0l-54.778 0.304c-8.318 29.62-13.593 48.934-15.824 57.943-2.232 9.048-4.869 21.688-7.913 37.918v0c-0.406 2.232-0.913 3.591-1.521 4.078-0.609 0.527-1.927 0.893-3.956 1.095v0c-2.637 0.203-4.808 0.548-6.513 1.035-1.745 0.527-4.139 1.603-7.182 3.226v0l-1.826-0.609c3.855-9.941 7.06-19.233 9.617-27.876 2.516-8.602 6.918-24.467 13.207-47.595v0l8.217-29.215h-1.522c-2.029 0-4.159-1.258-6.39-3.773-2.232-2.556-3.348-5.255-3.348-8.095v0c0-1.014 0.304-1.684 0.913-2.009 0.609-0.284 1.927-0.426 3.956-0.426v0l10.347 0.305 3.043-10.652c5.681-20.491 9.535-35.058 11.564-43.7 2.029-8.602 3.043-15.236 3.043-19.902v0c0-4.058-0.913-6.736-2.738-8.034-1.826-1.339-4.768-2.009-8.826-2.009v0c-3.652 0-8.419 0.243-14.303 0.731-5.883 0.527-10.55 1.096-13.998 1.704v0c-0.812-1.623-1.562-3.205-2.252-4.748-0.73-1.501-1.096-2.962-1.096-4.382v0c0-2.435 1.217-3.652 3.652-3.652v0c24.751-1.014 40.17-1.785 46.257-2.312 6.086-0.487 9.738-0.73 10.955-0.731v0c1.826 0 3.145 0.203 3.956 0.609 0.812 0.406 1.217 1.217 1.217 2.434v0c0 0.406-0.203 1.42-0.608 3.044v0l-26.476 92.208c12.781 0.609 31.142 0.913 55.082 0.913v0c15.013 0 31.852-0.203 50.517-0.608v0c6.898-33.475 15.419-66.342 25.563-98.6v0c1.217-4.058 3.043-6.999 5.477-8.825v0c4.058-2.84 11.422-6.188 22.094-10.043 10.631-3.855 18.685-5.782 24.163-5.782v0c5.681 0 8.521 2.739 8.521 8.217v0c-5.072 0-12.68 1.988-22.824 5.965-10.144 3.936-16.738 7.831-19.781 11.685v0c-3.449 4.26-7.912 15.926-13.39 34.997-5.478 19.071-10.55 39.156-15.216 60.255v0c-8.318 38.141-12.477 66.849-12.477 86.123v0c0 4.666 0.507 8.359 1.522 11.077 1.014 2.759 3.145 4.889 6.39 6.391 3.246 1.542 8.217 2.313 14.912 2.312z" fill="#87e3fa" fill-rule="nonzero" stroke="none" stroke-width="1" stroke-linecap="butt" stroke-linejoin="miter" stroke-miterlimit="10" stroke-dasharray="" stroke-dashoffset="0" font-family="none" font-weight="none" font-size="none" text-anchor="none" style="mix-blend-mode: normal" data-fill-palette-color="tertiary"></path></g></g><g transform="matrix(1,0,0,1,77.46429530201343,37.08)"><svg viewBox="0 0 240.59140939597313 173.04" height="173.04" width="240.59140939597313"><g><svg viewBox="0 0 240.59140939597313 173.04" height="173.04" width="240.59140939597313"><g><svg viewBox="0 0 240.59140939597313 173.04" height="173.04" width="240.59140939597313"><g id="textblocktransform"><svg viewBox="0 0 240.59140939597313 173.04" height="173.04" width="240.59140939597313" id="textblock"><g><svg viewBox="0 0 240.59140939597313 173.04" height="173.04" width="240.59140939597313"><g transform="matrix(1,0,0,1,0,0)"><svg width="240.59140939597313" viewBox="1.5500001907348633 -42.349998474121094 63.150001525878906 45.69999694824219" height="173.04" data-palette-color="#233565"><path d="M33.95-2.05Q36.05-2.05 37.77-2.6 39.5-3.15 40.7-3.95L40.7-3.95Q40.8-3.75 40.8-3.3L40.8-3.3Q40.8-1.75 38.35-0.73 35.9 0.3 33 0.3L33 0.3Q30.25 0.3 28.93-0.88 27.6-2.05 27.6-4.75L27.6-4.75Q27.6-8.15 29.35-16.9L29.35-16.9Q25.95-17 20.9-17L20.9-17 11.9-16.95Q9.85-9.65 9.3-7.43 8.75-5.2 8-1.2L8-1.2Q7.9-0.65 7.75-0.53 7.6-0.4 7.1-0.35L7.1-0.35Q6.45-0.3 6.03-0.18 5.6-0.05 4.85 0.35L4.85 0.35 4.55 0.25Q5.5-2.2 6.13-4.33 6.75-6.45 8.3-12.15L8.3-12.15 9.65-16.95 9.4-16.95Q8.9-16.95 8.35-17.57 7.8-18.2 7.8-18.9L7.8-18.9Q7.8-19.15 7.95-19.23 8.1-19.3 8.6-19.3L8.6-19.3 10.3-19.25 10.8-21Q12.2-26.05 12.7-28.18 13.2-30.3 13.2-31.45L13.2-31.45Q13.2-32.45 12.75-32.77 12.3-33.1 11.3-33.1L11.3-33.1Q10.4-33.1 8.95-32.98 7.5-32.85 6.65-32.7L6.65-32.7Q6.45-33.1 6.28-33.48 6.1-33.85 6.1-34.2L6.1-34.2Q6.1-34.8 6.7-34.8L6.7-34.8Q12.8-35.05 14.3-35.18 15.8-35.3 16.1-35.3L16.1-35.3Q16.55-35.3 16.75-35.2 16.95-35.1 16.95-34.8L16.95-34.8Q16.95-34.7 16.85-34.3L16.85-34.3 12.5-19.15Q15.65-19 21.55-19L21.55-19Q25.25-19 29.85-19.1L29.85-19.1Q31.55-27.35 34.05-35.3L34.05-35.3Q34.35-36.3 34.95-36.75L34.95-36.75Q35.95-37.45 38.58-38.4 41.2-39.35 42.55-39.35L42.55-39.35Q43.95-39.35 43.95-38L43.95-38Q42.7-38 40.2-37.02 37.7-36.05 36.95-35.1L36.95-35.1Q36.1-34.05 34.75-29.35 33.4-24.65 32.25-19.45L32.25-19.45Q30.2-10.05 30.2-5.3L30.2-5.3Q30.2-4.15 30.45-3.48 30.7-2.8 31.5-2.43 32.3-2.05 33.95-2.05L33.95-2.05ZM55.95-22.5Q58.9-21.6 60.3-20.28 61.7-18.95 61.7-16.3L61.7-16.3Q61.7-14.25 60.72-12.48 59.75-10.7 57.75-8.65 55.75-6.6 51.1-2.35L51.1-2.35Q50.25-1.6 48.55 0L48.55 0 46.5 0Q46.7-0.8 46.7-1.15L46.7-1.15 46.65-14.2 46.65-15.95Q46.65-17.45 46.42-17.88 46.2-18.3 45.3-18.3L45.3-18.3 41.85-18.35Q41.85-19 42.2-19.35L42.2-19.35Q44-19.55 44.87-19.78 45.75-20 46.45-20.3 47.15-20.6 47.6-20.8L47.6-20.8Q48.75-20.4 49.05-19.35 49.35-18.3 49.35-16.55L49.35-16.55Q49.35-12.05 49.2-7.7L49.2-7.7Q49.2-6.95 49.1-2.65L49.1-2.65Q54.8-8.6 56.85-11.65 58.9-14.7 58.9-16.85L58.9-16.85Q58.9-20.1 55.45-22.25L55.45-22.25 55.95-22.5Z" opacity="1" transform="matrix(1,0,0,1,0,0)" fill="#233565" class="undefined-text-0" data-fill-palette-color="primary" id="text-0"></path></svg></g></svg></g></svg></g></svg></g></svg></g></svg></g></svg></g><defs><mask id="68cb16c0-3d17-4d1a-9df5-006c4169452d"><rect width="395.52" height="247.2" fill="white"></rect><g transform="matrix(1,0,0,1,77.46429530201343,37.08)" id="clone"><svg viewBox="0 0 240.59140939597313 173.04" height="173.04" width="240.59140939597313"><g><svg viewBox="0 0 240.59140939597313 173.04" height="173.04" width="240.59140939597313"><g><svg viewBox="0 0 240.59140939597313 173.04" height="173.04" width="240.59140939597313"><g id="SvgjsG1002"><svg viewBox="0 0 240.59140939597313 173.04" height="173.04" width="240.59140939597313" id="SvgjsSvg1001"><g><svg viewBox="0 0 240.59140939597313 173.04" height="173.04" width="240.59140939597313"><g transform="matrix(1,0,0,1,0,0)"><svg width="240.59140939597313" viewBox="1.5500001907348633 -42.349998474121094 63.150001525878906 45.69999694824219" height="173.04" data-palette-color="#233565"><path d="M33.95-2.05Q36.05-2.05 37.77-2.6 39.5-3.15 40.7-3.95L40.7-3.95Q40.8-3.75 40.8-3.3L40.8-3.3Q40.8-1.75 38.35-0.73 35.9 0.3 33 0.3L33 0.3Q30.25 0.3 28.93-0.88 27.6-2.05 27.6-4.75L27.6-4.75Q27.6-8.15 29.35-16.9L29.35-16.9Q25.95-17 20.9-17L20.9-17 11.9-16.95Q9.85-9.65 9.3-7.43 8.75-5.2 8-1.2L8-1.2Q7.9-0.65 7.75-0.53 7.6-0.4 7.1-0.35L7.1-0.35Q6.45-0.3 6.03-0.18 5.6-0.05 4.85 0.35L4.85 0.35 4.55 0.25Q5.5-2.2 6.13-4.33 6.75-6.45 8.3-12.15L8.3-12.15 9.65-16.95 9.4-16.95Q8.9-16.95 8.35-17.57 7.8-18.2 7.8-18.9L7.8-18.9Q7.8-19.15 7.95-19.23 8.1-19.3 8.6-19.3L8.6-19.3 10.3-19.25 10.8-21Q12.2-26.05 12.7-28.18 13.2-30.3 13.2-31.45L13.2-31.45Q13.2-32.45 12.75-32.77 12.3-33.1 11.3-33.1L11.3-33.1Q10.4-33.1 8.95-32.98 7.5-32.85 6.65-32.7L6.65-32.7Q6.45-33.1 6.28-33.48 6.1-33.85 6.1-34.2L6.1-34.2Q6.1-34.8 6.7-34.8L6.7-34.8Q12.8-35.05 14.3-35.18 15.8-35.3 16.1-35.3L16.1-35.3Q16.55-35.3 16.75-35.2 16.95-35.1 16.95-34.8L16.95-34.8Q16.95-34.7 16.85-34.3L16.85-34.3 12.5-19.15Q15.65-19 21.55-19L21.55-19Q25.25-19 29.85-19.1L29.85-19.1Q31.55-27.35 34.05-35.3L34.05-35.3Q34.35-36.3 34.95-36.75L34.95-36.75Q35.95-37.45 38.58-38.4 41.2-39.35 42.55-39.35L42.55-39.35Q43.95-39.35 43.95-38L43.95-38Q42.7-38 40.2-37.02 37.7-36.05 36.95-35.1L36.95-35.1Q36.1-34.05 34.75-29.35 33.4-24.65 32.25-19.45L32.25-19.45Q30.2-10.05 30.2-5.3L30.2-5.3Q30.2-4.15 30.45-3.48 30.7-2.8 31.5-2.43 32.3-2.05 33.95-2.05L33.95-2.05ZM55.95-22.5Q58.9-21.6 60.3-20.28 61.7-18.95 61.7-16.3L61.7-16.3Q61.7-14.25 60.72-12.48 59.75-10.7 57.75-8.65 55.75-6.6 51.1-2.35L51.1-2.35Q50.25-1.6 48.55 0L48.55 0 46.5 0Q46.7-0.8 46.7-1.15L46.7-1.15 46.65-14.2 46.65-15.95Q46.65-17.45 46.42-17.88 46.2-18.3 45.3-18.3L45.3-18.3 41.85-18.35Q41.85-19 42.2-19.35L42.2-19.35Q44-19.55 44.87-19.78 45.75-20 46.45-20.3 47.15-20.6 47.6-20.8L47.6-20.8Q48.75-20.4 49.05-19.35 49.35-18.3 49.35-16.55L49.35-16.55Q49.35-12.05 49.2-7.7L49.2-7.7Q49.2-6.95 49.1-2.65L49.1-2.65Q54.8-8.6 56.85-11.65 58.9-14.7 58.9-16.85L58.9-16.85Q58.9-20.1 55.45-22.25L55.45-22.25 55.95-22.5Z" opacity="1" transform="matrix(1,0,0,1,0,0)" fill="#233565" class="undefined-text-0" data-fill-palette-color="primary" id="SvgjsPath1000" stroke-width="5" stroke="black" stroke-linejoin="round"></path></svg></g></svg></g></svg></g></svg></g></svg></g></svg></g></mask></defs></svg><rect width="395.52" height="247.2" fill="none" stroke="none" visibility="hidden"></rect></g></svg></g></svg>